<svg t="1656900084950" class="icon" viewBox="0 0 1024 1024" version="1.1"
    xmlns="http://www.w3.org/2000/svg" p-id="1696"
    width="32" height="32">
    <path
        d="M1032.752137 284.444444c0-65.641026-61.264957-131.282051-131.282052-131.282051H131.282051c-70.017094 0-131.282051 52.512821-131.282051 131.282051v450.735043c0 70.017094 52.512821 131.282051 131.282051 131.282051h770.188034c65.641026 0 118.153846-48.136752 131.282052-113.777777V284.444444z"
        fill="#FFFFFF" p-id="1697"></path>
    <path
        d="M315.076923 547.008547V358.837607c0-43.760684 39.384615-74.393162 83.145299-74.393163h608.273504c-4.376068-61.264957-61.264957-113.777778-126.905982-113.777777H144.410256C78.769231 170.666667 17.504274 223.179487 17.504274 297.57265v424.478632c0 65.641026 52.512821 126.905983 126.905982 126.905983h170.666667V568.888889v-21.880342z"
        fill="#FF7F00" p-id="1698"></path>
    <path
        d="M564.512821 708.923077V700.17094c0-21.880342 17.504274-30.632479 30.632478-30.632478h406.974359V568.888889H315.076923v275.692308h573.264957c52.512821 0 109.401709-39.384615 126.905983-96.273505h-402.59829c-30.632479 0-48.136752-17.504274-48.136752-39.384615zM315.076923 358.837607v188.17094H1010.871795V293.196581v-8.752137H398.222222c-43.760684 0-83.145299 30.632479-83.145299 74.393163z"
        fill="#262626" p-id="1699"></path>
    <path
        d="M315.076923 547.008547H1010.871795v21.880342H315.076923zM897.094017 284.444444v113.777778c0 26.25641-21.880342 52.512821-52.51282 52.512821-26.25641 0-52.512821-21.880342-52.512821-52.512821v-43.760684c0-17.504274-4.376068-26.25641-17.504273-39.384615-8.752137-8.752137-26.25641-17.504274-48.136753-17.504273-21.880342 4.376068-39.384615 26.25641-39.384615 52.51282v39.384615c0 26.25641-21.880342 52.512821-52.51282 52.512821-26.25641 0-52.512821-21.880342-52.512821-52.512821V284.444444h315.076923z"
        fill="#FFFFFF" p-id="1700"></path>
</svg>